# xmcd CD database file
#
# Track frame offsets:
#	150
#	12377
#	24872
#	36977
#	50220
#	62967
#	74467
#	86565
#	97607
#	110162
#	120330
#	131190
#	143975
#	155910
#	170250
#	185702
#	198272
#	212252
#	223340
#	234450
#	249007
#	259830
#
# Disc length: 3593 seconds
#
# Revision: 0
# Processed by: cddbd v1.5.1PL0 Copyright (c) Steve Scherf et al.
# Submitted via: CDex 1.51
#
DISCID=430e0716
DTITLE=Alfredito Valdes - Y Su Charanga Popular
DYEAR=1900
DGENRE=Salsa
TTITLE0=Chiviri
TTITLE1=El Sobre
TTITLE2=So Caballo
TTITLE3=Si Quieres Volver
TTITLE4=A Gozar
TTITLE5=Con Dulzura
TTITLE6=Pachanga Jump
TTITLE7=Quince Dias
TTITLE8=Vueltabajera
TTITLE9=Cha Cha Guere
TTITLE10=Gozala
TTITLE11=Ven Morena
TTITLE12=Charanga En New York
TTITLE13=Negra De Sociedad
TTITLE14=Sabrina
TTITLE15=Mañana Te Llevo Niña
TTITLE16=Dejate Querer
TTITLE17=Almendra
TTITLE18=Miau Miau
TTITLE19=Mi Novia Me Boto
TTITLE20=Flamenca
TTITLE21=Quimbombo
EXTD=
EXTT0=
EXTT1=
EXTT2=
EXTT3=
EXTT4=
EXTT5=
EXTT6=
EXTT7=
EXTT8=
EXTT9=
EXTT10=
EXTT11=
EXTT12=
EXTT13=
EXTT14=
EXTT15=
EXTT16=
EXTT17=
EXTT18=
EXTT19=
EXTT20=
EXTT21=
PLAYORDER=
